<svg width="1291" height="327" viewBox="0 0 1291 327" fill="none" xmlns="http://www.w3.org/2000/svg">
<path d="M1174.46 199.252C1174.46 202.452 1174.46 204.914 1174.46 207.375C1174.46 243.68 1174.46 279.986 1174.46 316.291C1174.46 319.491 1173.6 320.229 1170.52 320.106C1161.78 319.86 1161.78 320.106 1161.78 311.245C1161.78 268.54 1161.78 225.958 1161.78 183.253C1161.78 177.346 1161.54 178.823 1166.46 178.7C1170.89 178.454 1173.84 180.299 1176.92 183.745C1209.66 221.282 1242.64 258.818 1275.5 296.231C1276.24 297.093 1276.98 297.954 1278.08 299.062C1278.95 297.216 1278.58 295.739 1278.58 294.262C1278.58 256.972 1278.58 219.805 1278.58 182.515C1278.58 179.561 1279.07 178.453 1282.39 178.577C1291.01 178.823 1291.01 178.577 1291.01 187.191C1291.01 230.266 1291.01 273.217 1291.01 316.291C1291.01 319.737 1290.02 320.107 1286.82 320.23C1281.9 320.353 1278.95 318.383 1275.87 314.814C1242.89 277.032 1209.66 239.25 1176.55 201.59C1176.06 201.098 1175.57 200.606 1174.58 199.498L1174.46 199.252Z" fill="#1D1B1C"/>
<path d="M1066.65 321.707C1031.82 321.707 1002.28 299.923 993.791 267.802C983.33 228.666 1007.7 187.93 1047.33 179.069C1076.25 172.67 1102.46 178.577 1123.26 200.483C1157.1 235.927 1145.29 294.016 1100.61 314.446C1089.91 319.368 1078.59 321.83 1066.65 321.707ZM1129.29 249.342C1129.29 215.252 1102.21 188.299 1067.76 188.299C1032.43 188.299 1005.24 214.759 1004.87 248.85C1004.5 281.709 1030.96 310.261 1067.26 310.261C1102.09 310.261 1129.29 283.555 1129.41 249.342H1129.29Z" fill="#1D1B1C"/>
<path d="M150.396 248.604C150.519 289.832 116.429 324.291 72.9857 322.937C32.1266 321.707 -0.486778 288.847 0.00550035 247.373C0.497778 206.021 35.0803 173.162 77.6623 174.269C118.768 175.254 150.643 208.852 150.396 248.604Z" fill="#41AB34"/>
<path d="M303.987 233.957C296.849 233.957 289.834 233.957 282.696 233.957C280.604 233.957 279.373 233.342 278.019 231.619C269.897 221.404 256.236 217.589 243.929 221.896C231.991 226.204 223.869 237.526 223.746 249.956C223.746 263.863 233.099 275.924 246.76 279.37C260.051 282.816 274.327 276.662 280.727 264.478C282.08 261.894 283.68 261.402 286.142 261.402C299.433 261.402 312.602 261.402 325.893 261.402C330.201 261.402 330.324 261.402 329.216 265.586C322.693 292.415 306.817 311.491 280.973 321.09C235.56 337.951 187.317 310.26 178.456 263.617C170.949 223.989 197.778 184.483 237.406 175.992C279.25 167.131 318.14 193.098 328.232 230.388C329.093 233.465 328.355 233.957 325.524 233.957C318.263 233.834 311.125 233.957 303.864 233.957H303.987Z" fill="#1B191A"/>
<path d="M351.492 249.342C351.492 227.066 351.492 204.914 351.492 182.638C351.492 179.808 352.231 179.192 355.061 179.192C388.044 179.192 421.026 179.192 454.009 179.192C457.086 179.192 457.701 180.177 457.578 183.008C457.332 190.515 457.455 198.145 457.578 205.652C457.578 208.237 457.086 208.975 454.378 208.975C437.764 208.852 421.026 208.975 404.412 208.852C402.074 208.852 401.089 209.221 401.212 211.929C401.458 218.082 401.458 224.236 401.212 230.389C401.212 232.974 401.828 233.712 404.535 233.712C419.427 233.589 434.318 233.712 449.209 233.589C452.409 233.589 453.148 234.574 453.024 237.527C452.778 244.912 452.778 252.419 453.024 259.803C453.024 262.51 452.163 263.126 449.579 263.126C434.564 263.126 419.55 263.126 404.535 263.126C401.951 263.126 401.089 263.741 401.212 266.449C401.458 273.218 401.458 279.863 401.212 286.632C401.212 289.217 401.705 289.955 404.412 289.955C421.15 289.832 438.01 289.955 454.747 289.832C457.578 289.832 458.563 290.324 458.563 293.401C458.316 301.154 458.44 309.031 458.563 316.784C458.563 318.999 457.947 319.615 455.732 319.615C421.888 319.615 388.167 319.615 354.323 319.615C351.615 319.615 351.615 318.507 351.615 316.538C351.615 294.139 351.615 271.864 351.615 249.465L351.492 249.342Z" fill="#1B191A"/>
<path d="M327.743 74.0908C327.743 115.319 294.514 148.178 253.409 148.671C212.919 149.163 177.475 116.919 177.352 74.2137C177.229 33.3546 210.95 0.372267 252.178 0.00305836C293.037 -0.36615 327.989 32.7395 327.866 74.0908H327.743ZM295.868 74.2137C295.868 50.7074 276.177 31.5088 252.547 31.6319C228.672 31.6319 209.35 50.9538 209.596 74.4601C209.719 98.3356 229.164 117.411 253.04 117.288C276.669 117.165 296.114 97.72 295.991 74.2137H295.868Z" fill="#42AB34"/>
<path d="M604.156 249.218C604.156 226.942 604.156 204.79 604.156 182.514C604.156 179.93 604.648 179.068 607.356 179.068C621.755 179.191 636.154 179.191 650.553 179.068C653.261 179.068 653.876 179.807 653.876 182.391C653.876 214.882 653.876 247.372 653.753 279.862C653.753 283.431 654.738 284.047 658.061 283.923C674.183 283.8 690.182 283.923 706.304 283.8C708.642 283.8 709.627 284.047 709.627 286.754C709.504 296.6 709.504 306.322 709.627 316.168C709.627 318.506 709.011 319.121 706.673 319.121C673.567 319.121 640.462 319.121 607.356 319.121C604.772 319.121 604.279 318.383 604.279 315.922C604.279 293.523 604.279 271.247 604.279 248.849L604.156 249.218Z" fill="#1B191A"/>
<path d="M483.422 248.972C483.422 226.819 483.422 204.79 483.422 182.637C483.422 179.807 484.16 179.068 486.868 179.068C501.144 179.191 515.42 179.191 529.819 179.068C532.65 179.068 533.265 179.93 533.265 182.637C533.265 215.251 533.265 247.864 533.142 280.477C533.142 283.554 533.88 284.046 536.834 284.046C553.079 283.923 569.201 284.047 585.446 283.923C588.031 283.923 588.769 284.416 588.769 287.123C588.523 296.846 588.769 306.445 588.769 316.168C588.769 318.26 588.523 319.244 585.939 319.244C552.71 319.244 519.481 319.244 486.376 319.244C483.422 319.244 483.545 317.767 483.545 315.798C483.545 293.523 483.545 271.124 483.545 248.849L483.422 248.972Z" fill="#1B191A"/>
<path d="M75.5688 148.794C34.8328 149.286 0.373353 115.811 0.496422 74.5829C0.496422 33.7239 34.4636 -0.73545 77.784 0.249106C117.782 1.23366 151.257 33.8469 151.01 75.4444C150.641 115.934 116.92 148.917 75.6918 148.794H75.5688ZM138.95 74.5829C139.565 41.4773 111.751 11.6946 75.4457 11.6946C40.494 11.6946 12.3111 39.7545 12.188 74.4601C12.188 109.043 40.3709 136.979 75.3226 137.225C110.644 137.472 139.442 108.304 138.95 74.5829Z" fill="#44AC37"/>
<path d="M895.952 249.834C903.582 255.249 908.628 262.879 913.674 270.509C924.258 286.385 934.719 302.384 945.303 318.383C945.549 318.752 945.795 319.121 946.041 319.737C941.365 319.737 936.811 319.737 932.381 319.737C930.904 319.737 930.658 318.26 930.042 317.399C920.812 303.246 911.705 289.093 902.598 274.94C901.859 273.832 901.121 272.847 900.383 271.74C892.137 258.202 880.568 251.31 864.446 253.033C860.631 253.402 856.693 253.279 852.755 253.033C850.17 252.91 849.678 253.895 849.678 256.233C849.678 276.17 849.678 296.231 849.678 316.168C849.678 319.245 849.186 320.475 845.74 320.352C837.371 320.106 837.371 320.352 837.371 311.86C837.371 268.786 837.371 225.835 837.371 182.761C837.371 179.438 838.232 178.699 841.432 178.699C855.216 179.069 869.123 178.084 882.907 179.315C895.583 180.422 907.398 183.868 915.397 194.698C925.735 208.728 925.489 233.465 904.936 245.403C902.106 247.003 899.152 248.48 895.952 250.08V249.834ZM849.678 215.62C849.678 223.25 849.801 231.004 849.678 238.634C849.678 241.465 850.17 242.449 853.247 242.326C860.016 242.08 866.662 242.326 873.43 242.326C878.23 242.326 883.03 241.834 887.83 240.726C903.829 236.911 911.951 223.866 907.767 208.605C904.69 197.406 895.952 192.729 885.491 190.514C874.661 188.175 863.585 189.529 852.632 189.16C850.047 189.16 849.555 190.022 849.555 192.36C849.678 200.113 849.555 207.99 849.555 215.743L849.678 215.62Z" fill="#1C1A1B"/>
<path d="M753.928 254.51C753.928 233.957 753.928 213.405 753.928 192.852C753.928 189.529 752.943 189.037 749.99 189.037C734.729 189.16 719.468 189.037 704.208 189.037C701.623 189.037 700.516 188.668 700.516 185.714C700.762 178.453 700.516 178.453 707.777 178.453C743.836 178.453 779.895 178.453 815.955 178.453C819.032 178.453 819.647 179.438 819.647 182.268C819.524 189.16 819.647 189.16 812.878 189.16C798.848 189.16 784.695 189.16 770.665 189.16C767.342 189.16 766.358 189.775 766.358 193.344C766.481 234.203 766.358 275.185 766.481 316.045C766.481 319.49 765.743 320.475 762.297 320.352C753.805 320.106 753.805 320.352 753.805 311.86C753.805 292.785 753.805 273.832 753.805 254.756L753.928 254.51Z" fill="#1B191A"/>
<path d="M974.345 249.342C974.345 271.741 974.345 294.263 974.345 316.661C974.345 319.123 973.975 320.354 971.145 320.107C968.068 319.738 964.13 321.338 962.284 319.492C960.315 317.646 961.669 313.708 961.669 310.631C961.669 267.926 961.669 225.344 961.669 182.639C961.669 179.562 962.161 178.332 965.607 178.455C974.345 178.701 974.468 178.455 974.468 187.316C974.468 207.991 974.468 228.667 974.468 249.342H974.345Z" fill="#1E1C1D"/>
</svg>
